<?xml version="1.0" encoding="UTF-8" standalone="no"?>
<!-- Created with Inkscape (http://www.inkscape.org/) -->

<svg
   id="svg2"
   version="1.1"
   inkscape:version="1.1.1 (3bf5ae0d25, 2021-09-20)"
   width="580"
   height="580"
   sodipodi:docname="favico.svg"
   xmlns:inkscape="http://www.inkscape.org/namespaces/inkscape"
   xmlns:sodipodi="http://sodipodi.sourceforge.net/DTD/sodipodi-0.dtd"
   xmlns="http://www.w3.org/2000/svg"
   xmlns:svg="http://www.w3.org/2000/svg"
   xmlns:rdf="http://www.w3.org/1999/02/22-rdf-syntax-ns#"
   xmlns:cc="http://creativecommons.org/ns#"
   xmlns:dc="http://purl.org/dc/elements/1.1/">
  <metadata
     id="metadata8">
    <rdf:RDF>
      <cc:Work
         rdf:about="">
        <dc:format>image/svg+xml</dc:format>
        <dc:type
           rdf:resource="http://purl.org/dc/dcmitype/StillImage" />
      </cc:Work>
    </rdf:RDF>
  </metadata>
  <defs
     id="defs6" />
  <sodipodi:namedview
     pagecolor="#ffffff"
     bordercolor="#666666"
     borderopacity="1"
     objecttolerance="10"
     gridtolerance="10"
     guidetolerance="10"
     inkscape:pageopacity="0"
     inkscape:pageshadow="2"
     inkscape:window-width="1720"
     inkscape:window-height="1387"
     id="namedview4"
     showgrid="false"
     inkscape:zoom="1.1508772"
     inkscape:cx="151.18902"
     inkscape:cy="245.03049"
     inkscape:window-x="0"
     inkscape:window-y="27"
     inkscape:window-maximized="0"
     inkscape:current-layer="svg2"
     inkscape:pagecheckerboard="0" />
  <rect
     style="fill:#1f2429;fill-opacity:1;stroke-width:3.42798;stroke-linecap:round;stroke-linejoin:round;paint-order:stroke fill markers;stop-color:#000000"
     id="rect730"
     width="552.03436"
     height="552.03436"
     x="13.982819"
     y="13.982819"
     ry="75.717407" />
  <path
     id="rect571"
     style="fill:#00ff00;stroke-width:1.771;stroke-linecap:round;stroke-linejoin:round;paint-order:stroke fill markers;stop-color:#000000"
     d="m 149.5,129.33456 v 20.5 20.5 l 19.5,0.5 19.5,0.5 v 18.5 18.5 l -19.5,0.5 -19.5,0.5 -0.5,19.5 -0.5,19.5 -19.5,0.5 -19.5,0.5 -0.5,19.5 -0.5,19.5 -19.500002,0.5 -19.5,0.5 v 60.5 60.5 h 20.5 H 110.5 l 0.5,-39.5 0.5,-39.5 h 18.5 18.5 l 0.5,39.5 0.5,39.5 19.5,0.5 19.5,0.5 0.25586,18.5 c 0.1415,10.175 0.4686,19.06601 0.7246,19.75976 0.3664,0.99255 9.04889,1.20566 40.74219,1 L 270.5,450.33456 v -20.5 -20.5 l -39.5,-0.5 -39.5,-0.5 v -18.5 -18.5 h 98.5 98.5 l 0.27148,18.73828 0.27148,18.73828 -39.77148,0.26172 -39.77148,0.26172 v 20.5 20.5 h 40.5 40.5 l 0.26953,-19.73047 0.27148,-19.72852 19.72852,-0.27148 19.73047,-0.26953 0.5,-39.5 0.5,-39.5 h 18.5 18.5 l 0.5,39.5 0.5,39.5 h 20.5 20.5 v -60.5 -60.5 l -19.5,-0.5 -19.5,-0.5 -0.5,-19.5 -0.5,-19.5 -19.5,-0.5 -19.5,-0.5 -0.5,-19.5 -0.5,-19.5 -19.5,-0.5 -19.5,-0.5 -0.27344,-18.73047 -0.27149,-18.72852 19.77149,-0.27148 19.77344,-0.26953 v -20.5 -20.5 H 410 389.5 l -0.27149,19.72851 -0.27148,19.72852 -19.72852,0.27148 -19.72851,0.27149 -0.27149,19.75781 -0.27148,19.75781 -58.72852,-0.25781 -58.72851,-0.25781 -0.5,-19.5 -0.5,-19.5 -19.5,-0.5 -19.5,-0.5 -0.5,-19.5 -0.5,-19.5 H 170 Z m 42,122 h 18.5 18.5 v 18.5 18.5 l -18.27344,0.27148 c -14.3227,0.21371 -18.38199,-0.0101 -18.77539,-1.03516 -0.276,-0.71927 -0.37756,-9.16581 -0.22657,-18.77148 z m 160,0 h 18.5 18.5 l 0.27148,18.75 0.27148,18.75 h -18.55273 c -14.1908,0 -18.66968,-0.30222 -19.04687,-1.28516 -0.27121,-0.70683 -0.36976,-9.14433 -0.21876,-18.75 z" />
</svg>
